<?xml version="1.0" encoding="utf-8"?>
<svg width="48" height="48" viewBox="0 0 48 48" fill="none" xmlns="http://www.w3.org/2000/svg">
  <defs>
    <clipPath id="clip_path_1">
      <rect width="48" height="48" />
    </clipPath>
    <linearGradient id="gradient_2" gradientUnits="userSpaceOnUse" x1="48.328" y1="0" x2="0" y2="47.813">
      <stop offset="0" stop-color="#8D9194" />
      <stop offset="0.526" stop-color="#4B4E52" />
      <stop offset="1" stop-color="#1C1C1E" />
    </linearGradient>
  </defs>
  <g clip-path="url(#clip_path_1)">
    <path d="M35 0C42.1807 0 48 5.81932 48 13L48 35C48 42.1807 42.1807 48 35 48L13 48C5.81932 48 0 42.1807 0 35L0 13C0 5.81932 5.81932 0 13 0L35 0Z" fill="url(#gradient_2)" />
    <g transform="translate(7 7)">
      <path d="M17.0001 34C17.0001 34 21.3221 31.5406 21.5053 27.8766C24.2228 30.3349 29.021 29.021 29.021 29.021C29.021 29.021 30.338 24.2256 27.8766 21.5053C31.5364 21.322 34 17 34 17C34 17 31.5406 12.6781 27.8766 12.4949C30.3349 9.77737 29.021 4.97922 29.021 4.97922C29.021 4.97922 24.2297 3.66335 21.5088 6.12048C21.3882 2.59815 17.0001 0 17.0001 0C17.0001 0 12.6154 2.57954 12.4916 6.11561C9.91469 3.71472 4.97922 4.97924 4.97922 4.97924C4.97922 4.97924 3.70284 9.90361 6.11558 12.4916C2.59575 12.616 0 17 0 17C0 17 2.57956 21.3848 6.11565 21.5086C3.71476 24.0855 4.97927 29.021 4.97927 29.021C4.97927 29.021 9.90807 30.2985 12.4951 27.8814C12.6819 31.5386 17.0001 34 17.0001 34L17.0001 34ZM20.1015 7.51888L17.0001 10.6203L13.9284 7.54852L13.9284 6.11166C13.9284 3.62816 17.015 1.80446 17.015 1.80446C17.015 1.80446 20.1015 3.63986 20.1015 6.11166L20.1015 7.51888L20.1015 7.51888ZM21.5111 8.10282L21.5111 12.4888L25.8553 12.4888L26.8252 11.519C28.6673 9.67676 27.7344 6.24465 27.7344 6.24465C27.7344 6.24465 24.3045 5.30949 22.4601 7.15389L21.5111 8.10282L21.5111 8.10282ZM11.4937 7.10775L12.4887 8.10276L12.4887 12.4888L8.14457 12.4888L7.1286 11.4729C5.37251 9.71677 6.26551 6.24466 6.26551 6.24466C6.26551 6.24466 9.74591 5.35995 11.4937 7.10775L11.4937 7.10775ZM17.9971 11.6171L20.1017 13.7217L20.1017 9.51254L17.9971 11.6171L17.9971 11.6171ZM13.9284 9.54217L16.0033 11.6171L13.9284 13.692L13.9284 9.54217L13.9284 9.54217ZM17 21.3442L21.365 16.9791L17 12.6139L12.6348 16.9791L17 21.3442L17 21.3442ZM6.11159 13.8986L7.51873 13.8986L10.6202 17L7.54849 20.0717L6.11159 20.0717C3.62808 20.0717 1.80438 16.9852 1.80438 16.9852C1.80438 16.9852 3.63979 13.8986 6.11159 13.8986L6.11159 13.8986ZM9.5542 13.8986L11.6379 15.9822L13.7215 13.8986L9.5542 13.8986L9.5542 13.8986ZM24.4458 13.8986L22.3622 15.9822L20.2785 13.8986L24.4458 13.8986L24.4458 13.8986ZM27.8232 20.0717L26.4516 20.0717L23.3798 17L26.4814 13.8986L27.8232 13.8986C30.4316 13.8986 32.1956 16.9852 32.1956 16.9852C32.1956 16.9852 30.4285 20.0717 27.8232 20.0717L27.8232 20.0717ZM9.54244 20.0717L11.6173 17.9969L13.6922 20.0717L9.54244 20.0717L9.54244 20.0717ZM24.458 20.0717L22.3831 17.9969L20.3082 20.0717L24.458 20.0717L24.458 20.0717ZM18.0179 22.3619L20.1015 24.4456L20.1015 20.2784L18.0179 22.3619L18.0179 22.3619ZM13.9284 24.4159L13.9284 20.308L15.9823 22.362L13.9284 24.4159L13.9284 24.4159ZM8.10286 21.5112L12.4889 21.5112L12.4889 25.8553L11.4729 26.8713C9.71685 28.6274 6.24474 27.7344 6.24474 27.7344C6.24474 27.7344 5.36003 24.254 7.10783 22.5062L8.10286 21.5112L8.10286 21.5112ZM22.481 26.8252L21.5111 25.8553L21.5111 21.5112L25.8972 21.5112L26.8461 22.4601C28.6905 24.3045 27.7554 27.7344 27.7554 27.7344C27.7554 27.7344 24.3232 28.6674 22.481 26.8252L22.481 26.8252ZM20.1015 27.8232L20.1015 26.4813L17.0001 23.3798L13.9284 26.4516L13.9284 27.8232C13.9284 30.4284 17.015 32.1955 17.015 32.1955C17.015 32.1955 20.1015 30.4315 20.1015 27.8232L20.1015 27.8232Z" fill="#FFFFFF" fill-rule="evenodd" />
    </g>
  </g>
</svg>